<?xml version="1.0" encoding="UTF-8"?><svg id="_Слой_1" xmlns="http://www.w3.org/2000/svg" xmlns:xlink="http://www.w3.org/1999/xlink" viewBox="0 0 560 560"><defs><style>.cls-1{fill:url(#linear-gradient-2);}.cls-2{fill:url(#linear-gradient-3);}.cls-3{fill:url(#linear-gradient);}</style><linearGradient id="linear-gradient" x1="-902.36" y1="215.14" x2="-733.04" y2="-105.3" gradientTransform="translate(833.22 786.38) rotate(50)" gradientUnits="userSpaceOnUse"><stop offset="0" stop-color="#ff4500"/><stop offset=".16" stop-color="#fd4503"/><stop offset=".31" stop-color="#fa470f"/><stop offset=".46" stop-color="#f34922"/><stop offset=".61" stop-color="#eb4d3c"/><stop offset=".63" stop-color="#ea4e41"/><stop offset=".73" stop-color="#ea4138"/><stop offset=".85" stop-color="#eb2c2a"/><stop offset="1" stop-color="#eb2320"/></linearGradient><linearGradient id="linear-gradient-2" x1="-544.2" y1="261.49" x2="-716.71" y2="-91.94" gradientTransform="translate(833.22 786.38) rotate(50)" gradientUnits="userSpaceOnUse"><stop offset=".14" stop-color="#bf122e"/><stop offset=".25" stop-color="#c91026"/><stop offset=".45" stop-color="#e30c13"/><stop offset=".61" stop-color="#ff0800"/><stop offset="1" stop-color="#ea5c63"/></linearGradient><linearGradient id="linear-gradient-3" x1="-850.75" y1="224.5" x2="-567.36" y2="224.5" gradientTransform="translate(833.22 786.38) rotate(50)" gradientUnits="userSpaceOnUse"><stop offset=".19" stop-color="#bf002e"/><stop offset=".24" stop-color="#c60028"/><stop offset=".51" stop-color="#e50412"/><stop offset=".73" stop-color="#f80704"/><stop offset=".89" stop-color="#ff0800"/><stop offset="1" stop-color="#ff0800"/></linearGradient></defs><path class="cls-3" d="m97.06,317.32c.55-24.2,17.04-44.29,39.22-50.45l300.78-91.16c-32.97-49.55-88.78-82.77-152.8-84.22-104.12-2.35-190.43,80.14-192.78,184.26-.48,21.01,2.51,41.3,8.42,60.32,0,0-2.95-13.88-2.84-18.74Z"/><path class="cls-1" d="m468.52,284.26c1.56-68.88-34.04-129.95-88.46-164.09,4.42,3.2,8.25,7.17,11.2,11.76,4.55,7.07,7.1,15.52,6.9,24.55-.13,5.69-1.34,11.1-3.44,16.04l-147.8,293.15c9.38,1.66,19,2.63,28.81,2.85,104.12,2.36,190.43-80.14,192.78-184.26Z"/><path class="cls-2" d="m335.36,459.41c-2.67.33-7.28.87-13.13-.02-17.86-2.73-31.52-15.94-35.7-32.42l-.64-2.36c-19.29-70.07-66-128.99-128.09-164.27l-21.52,6.52c-22.18,6.16-38.67,26.26-39.22,50.45-.1,4.28,2.18,15.54,2.72,18.18,23.24,75.49,92.65,131.14,175.95,133.03,23.08.52,45.27-3.14,65.88-10.27-1.65.41-3.75.85-6.26,1.16Z"/></svg>